<svg id="Layer_1" enable-background="new 0 0 511.493 511.493" height="512" viewBox="0 0 511.493 511.493" width="512" xmlns="http://www.w3.org/2000/svg"><g><g><path d="m511.267 57.317c-1.91-30.565-26.649-55.295-57.214-57.195-24.79-1.541-46.643 11.676-57.63 31.703-13.952 25.432-31.753 48.554-52.269 69.061l66.38 66.35.134-.133c20.411-20.402 43.342-38.238 68.697-52.024 20.144-10.954 33.457-32.88 31.902-57.762z" fill="#96BAFF"/><path d="m511.267 57.316c-.955-15.289-7.623-29.118-17.875-39.36l-116.076 116.077 33.218 33.203.134-.134c20.411-20.402 43.343-38.238 68.697-52.024 20.145-10.954 33.457-32.88 31.902-57.762z" fill="#7C83FD"/></g><path d="m246.093 429.822-144.208 1.443c-12.126.121-21.987-9.74-21.866-21.866l1.444-144.133c.515-51.404 21.173-100.558 57.54-136.908 67.404-67.374 176.656-67.374 244.06 0 67.386 67.356 67.386 176.594 0 243.95-36.367 36.35-85.542 56.999-136.97 57.514z" fill="#ffc478"/><g fill="#96BAFF"><path d="m268.575 78.977c0-43.535-35.308-78.977-78.863-78.977h-123.222c-6.222 0-11.266 5.044-11.266 11.266v5.64c0 43.535 35.308 61.921 78.863 61.921l128.272-.012z"/><path d="m81.115 300.02 4.256-72.229h-2.534c-44.278-.677-80.76 34.576-81.58 78.831l-1.151 62.096c-.103 5.566 4.38 10.133 9.947 10.133 44.277.677 70.241-34.576 71.062-78.831z"/></g><g fill="#7C83FD"><path d="m511.39 321.539c0-43.535-35.458-78.827-79.013-78.827l.162 6.214-.012 128.215c0 43.535 21.02 78.828 64.575 78.827 7.891 0 14.288-6.397 14.288-14.288z"/><path d="m282.606 426.078-72.262 4.255c-40.513.75-73.485 31.025-78.277 70.072-.724 5.901 3.944 11.089 9.889 11.089h8.899l52.884-1.339c44.275-.82 79.544-37.286 78.866-81.544v-2.533z"/></g><path d="m383.063 128.357c-.01-.01-.02-.019-.029-.029l-296.634 296.634c3.963 3.943 9.441 6.363 15.485 6.303l144.208-1.443c51.427-.515 100.603-21.164 136.97-57.514 67.386-67.356 67.386-176.594 0-243.951z" fill="#e88153"/><path d="m227.063 220.481 38.72-10.37c1.026-.275 2.086-.256 3.075.019l12.475-62.825c-34.87-7.594-72.759 2.158-99.872 29.26-.41.41-.81.828-1.214 1.244l44.201 44.181c.713-.712 1.609-1.24 2.615-1.509z" fill="#e88153"/><g fill="#b75928"><path d="m271.417 211.619 28.343 28.331c.712.712 1.209 1.582 1.478 2.518l63.454-9.523c-3.914-20.654-13.861-40.39-29.85-56.372l-.008-.008c-15.244-15.237-33.895-24.99-53.5-29.26l-12.475 62.825c.951.265 1.836.767 2.558 1.489z"/><path d="m301.271 245.586-10.374 38.698c-.27 1.007-.798 1.903-1.51 2.615l44.202 44.183c.418-.406.839-.809 1.252-1.222 26.353-26.341 36.3-62.875 29.85-96.916l-63.454 9.523c.289 1.002.313 2.078.034 3.119z"/><path d="m212.564 263.303 10.374-38.698c.27-1.007.798-1.903 1.51-2.615l-44.201-44.181c-22.094 22.714-34.627 53.074-34.945 84.804l-.304 30.401 67.546-26.793c-.235-.945-.24-1.946.02-2.918z"/></g><path d="m333.589 331.082-44.202-44.183c-.712.712-1.609 1.24-2.615 1.509l-38.72 10.37c-.988.265-2.007.258-2.964.011l-22.58 67.484 26.251-.263c31.735-.316 62.101-12.843 84.83-34.928z" fill="#4c160d"/><path d="m242.418 297.27-28.343-28.331c-.763-.763-1.28-1.708-1.532-2.72l-67.546 26.793-.52 51.957c-.121 12.126 9.74 21.987 21.866 21.866l56.165-.562 22.58-67.484c-.994-.255-1.919-.769-2.67-1.519z" fill="#e88153"/><path d="m290.897 284.284 10.374-38.698c.279-1.041.255-2.117-.033-3.118-.268-.935-.766-1.806-1.478-2.518l-28.343-28.331c-.722-.722-1.607-1.225-2.558-1.49-.989-.276-2.049-.294-3.075-.019l-38.72 10.37c-1.006.27-1.903.797-2.615 1.509s-1.241 1.609-1.51 2.615l-10.374 38.698c-.26.972-.255 1.973-.021 2.917.252 1.012.768 1.957 1.532 2.72l28.343 28.331c.75.75 1.676 1.264 2.669 1.52.957.247 1.976.254 2.964-.011l38.72-10.37c1.006-.27 1.903-.797 2.615-1.509.712-.713 1.24-1.609 1.51-2.616z" fill="#8d431f"/><path d="m334.833 176.565c-.006-.006-.012-.012-.018-.018l-49.232 49.232 14.177 14.171c.712.712 1.209 1.582 1.478 2.518l63.454-9.523c-3.914-20.654-13.861-40.39-29.85-56.372z" fill="#8d431f"/><path d="m301.271 245.586c.279-1.041.254-2.117-.033-3.118-.268-.935-.765-1.806-1.477-2.518l-14.177-14.171-57.331 57.331 14.166 14.16c.75.75 1.676 1.264 2.669 1.52.957.247 1.976.254 2.964-.011l38.721-10.37c1.006-.27 1.903-.797 2.615-1.509s1.24-1.608 1.51-2.615z" fill="#6d271a"/><path d="m242.432 297.257-14.166-14.16-77.409 77.409c3.964 3.951 9.449 6.377 15.5 6.317l56.165-.562 22.58-67.484c-.995-.256-1.92-.77-2.67-1.52z" fill="#b75928"/></g></svg>